<svg xmlns="http://www.w3.org/2000/svg" width="23.723" height="23.723" viewBox="0 0 23.723 23.723">
  <g id="Icon_feather-instagram" data-name="Icon feather-instagram" transform="translate(-1.5 -1.5)">
    <path id="Path_419" data-name="Path 419" d="M8.181,3H18.542a5.181,5.181,0,0,1,5.181,5.181V18.542a5.181,5.181,0,0,1-5.181,5.181H8.181A5.181,5.181,0,0,1,3,18.542V8.181A5.181,5.181,0,0,1,8.181,3Z" fill="none" stroke="#fff" stroke-linecap="round" stroke-linejoin="round" stroke-width="3"/>
    <path id="Path_420" data-name="Path 420" d="M20.309,15.472a4.145,4.145,0,1,1-3.492-3.492,4.145,4.145,0,0,1,3.492,3.492Z" transform="translate(-2.803 -2.763)" fill="none" stroke="#fff" stroke-linecap="round" stroke-linejoin="round" stroke-width="3"/>
    <path id="Path_421" data-name="Path 421" d="M26.25,9.75h0" transform="translate(-7.19 -2.087)" fill="none" stroke="#fff" stroke-linecap="round" stroke-linejoin="round" stroke-width="3"/>
  </g>
</svg>
