<svg xmlns="http://www.w3.org/2000/svg" width="15.75" height="15.75" viewBox="0 0 15.75 15.75">
  <g id="Icon_ionic-ios-checkbox-outline" data-name="Icon ionic-ios-checkbox-outline" transform="translate(-4.5 -4.5)">
    <path id="Path_414" data-name="Path 414" d="M18.938,4.5H5.813A1.311,1.311,0,0,0,4.5,5.813V18.938A1.311,1.311,0,0,0,5.813,20.25H18.938a1.311,1.311,0,0,0,1.313-1.312V5.813A1.311,1.311,0,0,0,18.938,4.5ZM19.1,18.773a.329.329,0,0,1-.328.328H5.977a.329.329,0,0,1-.328-.328V5.977a.329.329,0,0,1,.328-.328h12.8a.329.329,0,0,1,.328.328Z" fill="#253662"/>
    <path id="Path_415" data-name="Path 415" d="M19.29,13l-.722-.742a.155.155,0,0,0-.115-.049h0a.149.149,0,0,0-.115.049l-5,5.041-1.821-1.821a.159.159,0,0,0-.23,0l-.73.73a.163.163,0,0,0,0,.234l2.3,2.3a.726.726,0,0,0,.48.234.761.761,0,0,0,.476-.226h0l5.484-5.513A.175.175,0,0,0,19.29,13Z" transform="translate(-2.502 -3.211)" fill="#253662"/>
  </g>
</svg>
