<svg xmlns="http://www.w3.org/2000/svg" width="23.176" height="18.823" viewBox="0 0 23.176 18.823">
  <path id="Icon_awesome-twitter" data-name="Icon awesome-twitter" d="M20.794,8.072c.015.206.015.412.015.618A13.422,13.422,0,0,1,7.294,22.2,13.423,13.423,0,0,1,0,20.072a9.826,9.826,0,0,0,1.147.059,9.513,9.513,0,0,0,5.9-2.029A4.758,4.758,0,0,1,2.6,14.807a5.99,5.99,0,0,0,.9.074,5.024,5.024,0,0,0,1.25-.162A4.751,4.751,0,0,1,.941,10.057V10a4.784,4.784,0,0,0,2.147.6A4.757,4.757,0,0,1,1.618,4.248a13.5,13.5,0,0,0,9.794,4.971,5.362,5.362,0,0,1-.118-1.088,4.754,4.754,0,0,1,8.22-3.25,9.352,9.352,0,0,0,3.015-1.147,4.737,4.737,0,0,1-2.088,2.618,9.522,9.522,0,0,0,2.735-.735,10.21,10.21,0,0,1-2.382,2.456Z" transform="translate(0 -3.381)" fill="#fff"/>
</svg>
