<svg xmlns="http://www.w3.org/2000/svg" width="26.068" height="23.862" viewBox="0 0 26.068 23.862">
  <path id="Icon_awesome-youtube" data-name="Icon awesome-youtube" d="M26.573,8.234a3.911,3.911,0,0,0-2.3-3.02C22.236,4.5,14.084,4.5,14.084,4.5S5.932,4.5,3.9,5.214a3.911,3.911,0,0,0-2.3,3.02,57.963,57.963,0,0,0-.545,8.221,57.963,57.963,0,0,0,.545,8.221,3.831,3.831,0,0,0,2.3,2.972c2.033.714,10.185.714,10.185.714s8.152,0,10.185-.714a3.831,3.831,0,0,0,2.3-2.972,57.963,57.963,0,0,0,.545-8.221,57.963,57.963,0,0,0-.545-8.221ZM11.418,21.5V11.409l6.813,5.046L11.418,21.5Z" transform="translate(-1.05 -4.5)" fill="#fff"/>
</svg>
