<?xml version="1.0" encoding="UTF-8"?>
<svg width="40px" height="48px" viewBox="0 0 40 48" version="1.1" xmlns="http://www.w3.org/2000/svg" xmlns:xlink="http://www.w3.org/1999/xlink">
    <!-- Generator: Sketch 52.2 (67145) - http://www.bohemiancoding.com/sketch -->
    <title>Group 21</title>
    <desc>Created with Sketch.</desc>
    <g id="Pages" stroke="none" stroke-width="1" fill="none" fill-rule="evenodd">
        <g id="Get-Started" transform="translate(-700.000000, -1002.000000)">
            <g id="Group-12" transform="translate(0.000000, 972.000000)">
                <g id="Group-21" transform="translate(700.000000, 30.000000)">
                    <circle id="Oval" fill="#FFFFFF" cx="20" cy="27" r="17"></circle>
                    <g id="Group-16" fill="#2868D5">
                        <path d="M35.9374119,17.250059 C38.3124058,20.625051 39.4999034,24.375042 39.4999034,28.5000322 C39.4999034,32.0625237 38.624906,35.3281404 36.8749097,38.2968838 C35.1249134,41.2656272 32.765545,43.6249956 29.7968016,45.374992 C26.8280582,47.1249883 23.5624414,47.9999857 19.9999499,47.9999857 C16.4374584,47.9999857 13.1718417,47.1249883 10.2030983,45.374992 C7.23435489,43.6249956 4.87498647,41.2656272 3.12499017,38.2968838 C1.37499386,35.3281404 0.499996424,32.0625237 0.499996424,28.5000322 C0.499996424,25.2500395 1.26562008,22.2031717 2.79686595,19.359429 C4.32811182,16.5156862 6.40623234,14.1875658 9.03122608,12.3750706 C11.6562198,10.5625754 14.5624629,9.46882756 17.7499553,9.09382845 L17.7499553,4.50008941 L15.1249616,4.50008941 C14.8124628,4.50008941 14.5468375,4.39071419 14.3280885,4.17196519 C14.1093395,3.95321619 13.9999642,3.68759087 13.9999642,3.37509209 L13.9999642,1.12509745 C13.9999642,0.812598675 14.1093395,0.546973355 14.3280885,0.328224353 C14.5468375,0.109475352 14.8124628,0.000100135803 15.1249616,0.000100135803 L24.8749383,0.000100135803 C25.1874371,0.000100135803 25.4530624,0.109475352 25.6718114,0.328224353 C25.8905604,0.546973355 25.9999356,0.812598675 25.9999356,1.12509745 L25.9999356,3.37509209 C25.9999356,3.68759087 25.8905604,3.95321619 25.6718114,4.17196519 C25.4530624,4.39071419 25.1874371,4.50008941 24.8749383,4.50008941 L22.2499446,4.50008941 L22.2499446,9.09382845 C26.3124344,9.59382679 29.8749259,11.187573 32.9374191,13.8750671 L34.9061644,11.9063217 C35.0936639,11.7188222 35.3436638,11.6250724 35.6561626,11.6250724 C35.9686614,11.6250724 36.2499107,11.7188222 36.4999106,11.9063217 L38.0936568,13.5000679 C38.2811563,13.7500678 38.3749061,14.0313172 38.3749061,14.3438159 C38.3749061,14.6563147 38.2811563,14.9063146 38.0936568,15.0938141 L35.9374119,17.250059 Z M19.9999499,43.4999964 C22.687444,43.4999964 25.1874371,42.8281225 27.4999321,41.4843762 C29.812427,40.1406299 31.6405477,38.3125093 32.984294,36.0000143 C34.3280403,33.6875193 34.9999142,31.1875263 34.9999142,28.5000322 C34.9999142,25.8125381 34.3280403,23.312545 32.984294,21.0000501 C31.6405477,18.6875551 29.812427,16.8594345 27.4999321,15.5156881 C25.1874371,14.1719418 22.687444,13.5000679 19.9999499,13.5000679 C17.3124559,13.5000679 14.8124628,14.1719418 12.4999678,15.5156881 C10.1874729,16.8594345 8.35935221,18.6875551 7.01560589,21.0000501 C5.67185957,23.312545 4.99998569,25.8125381 4.99998569,28.5000322 C4.99998569,31.1875263 5.67185957,33.6875193 7.01560589,36.0000143 C8.35935221,38.3125093 10.1874729,40.1406299 12.4999678,41.4843762 C14.8124628,42.8281225 17.3124559,43.4999964 19.9999499,43.4999964 Z M18.6249937,33.0000644 C18.312495,33.0000644 18.0468696,32.8906892 17.8281206,32.6719402 C17.6093716,32.4531912 17.4999964,32.1875658 17.4999964,31.8750671 L17.4999964,19.1250975 C17.4999964,18.8125987 17.6093716,18.5469734 17.8281206,18.3282244 C18.0468696,18.1094754 18.312495,18.0001001 18.6249937,18.0001001 L20.8749884,18.0001001 C21.1874872,18.0001001 21.4531125,18.1094754 21.6718615,18.3282244 C21.8906105,18.5469734 21.9999857,18.8125987 21.9999857,19.1250975 L21.9999857,31.8750671 C21.9999857,32.1875658 21.8906105,32.4531912 21.6718615,32.6719402 C21.4531125,32.8906892 21.1874872,33.0000644 20.8749884,33.0000644 L18.6249937,33.0000644 Z M18.6249937,39.0000644 C18.312495,39.0000644 18.0468696,38.8906892 17.8281206,38.6719402 C17.6093716,38.4531912 17.4999964,38.1875658 17.4999964,37.8750671 L17.4999964,36.1250975 C17.4999964,35.8125987 17.6093716,35.5469734 17.8281206,35.3282244 C18.0468696,35.1094754 18.312495,35.0001001 18.6249937,35.0001001 L20.8749884,35.0001001 C21.1874872,35.0001001 21.4531125,35.1094754 21.6718615,35.3282244 C21.8906105,35.5469734 21.9999857,35.8125987 21.9999857,36.1250975 L21.9999857,37.8750671 C21.9999857,38.1875658 21.8906105,38.4531912 21.6718615,38.6719402 C21.4531125,38.8906892 21.1874872,39.0000644 20.8749884,39.0000644 L18.6249937,39.0000644 Z" id="stopwatch"></path>
                    </g>
                </g>
            </g>
        </g>
    </g>
</svg>