<?xml version="1.0" encoding="UTF-8"?>
<svg width="182px" height="53px" viewBox="0 0 182 53" version="1.1" xmlns="http://www.w3.org/2000/svg" xmlns:xlink="http://www.w3.org/1999/xlink">
    <!-- Generator: Sketch 62 (91390) - https://sketch.com -->
    <title>theblueprint-logo-3lines@8x</title>
    <desc>Created with Sketch.</desc>
    <g id="Pages" stroke="none" stroke-width="1" fill="none" fill-rule="evenodd">
        <g id="theblueprint-logo-3lines">
            <path d="M0,0 L0,4.84487565 L0,8.72003906 L0,43.2795514 L0,52 L8.78820924,52 L43.2117908,52 L52,52 L52,43.2795514 L52,23.7210943 L52,15.0006458 L43.2117908,15.0006458 L37.4846385,15.0006458 L37.4846385,8.72003906 L37.4846385,3.86124018 L37.4846385,0 L0,0 Z M8.66666667,8.66666667 L28.7154704,8.66666667 L28.7154704,14.9667468 L24.3684734,14.9667468 L15.5182055,14.9667468 L15.5182055,23.7142338 L15.5182055,28.286177 L15.5182055,37.0332532 L24.3684734,37.0332532 L28.7154704,37.0332532 L37.5657383,37.0332532 L37.5657383,28.286177 L37.5657383,23.7142338 L43.3333333,23.7142338 L43.3333333,43.3333333 L8.66666667,43.3333333 L8.66666667,8.66666667 Z M23.1111111,28.8888889 L28.8888889,28.8888889 L28.8888889,23.1111111 L23.1111111,23.1111111 L23.1111111,28.8888889 Z" id="Fill-1" fill="#2868D5"></path>
            <g id="THE-BLUEPRINT-TRAINI" transform="translate(65.000000, 0.000000)" fill-rule="nonzero">
                <path d="M7.12381177,13.072 L7.12381177,2.86851163 L10.8618559,2.86851163 L10.8618559,0.072 L0,0.072 L0,2.86851163 L3.71847317,2.86851163 L3.71847317,13.072 L7.12381177,13.072 Z M15.4352688,13.072 L15.4352688,7.97025581 L19.7408694,7.97025581 L19.7408694,13.072 L23.146208,13.072 L23.146208,0.072 L19.7408694,0.072 L19.7408694,5.13595349 L15.4352688,5.13595349 L15.4352688,0.072 L12.0299303,0.072 L12.0299303,13.072 L15.4352688,13.072 Z M35,13.072 L35,10.4077558 L28.8547338,10.4077558 L28.8547338,7.83798837 L34.0605963,7.83798837 L34.0605963,5.17374419 L28.8547338,5.17374419 L28.8547338,2.73624419 L35,2.73624419 L35,0.072 L25.4493952,0.072 L25.4493952,13.072 L35,13.072 Z" id="THE" fill="#667291"></path>
                <path d="M9.3759063,32.8995862 C10.9579848,32.8995862 12.0946582,32.5691264 12.7859268,31.9082069 C13.4771953,31.2472874 13.8228295,30.263092 13.8228295,28.9556207 C13.8228295,27.8205632 13.6161616,26.9944138 13.2028258,26.4771724 C12.78949,25.959931 12.0982215,25.5935517 11.1290203,25.3780345 L11.1290203,25.3780345 L11.1290203,25.2918276 C12.0269567,25.0906782 12.6790296,24.7207069 13.0852389,24.1819138 C13.4914482,23.6431207 13.6945529,22.8492989 13.6945529,21.8004483 C13.6945529,20.5504483 13.3382289,19.6165402 12.625581,18.9987241 C11.912933,18.380908 10.8368346,18.072 9.39728574,18.072 L9.39728574,18.072 L2,18.072 L2,32.8995862 L9.3759063,32.8995862 Z M8.05038111,23.9771724 L5.69864287,23.9771724 L5.69864287,21.0892414 L8.05038111,21.0892414 C8.60624651,21.0892414 9.00889261,21.1251609 9.25831939,21.197 C9.50774617,21.2688391 9.67878168,21.4053333 9.77142592,21.6064828 C9.86407015,21.8076322 9.91039227,22.1165402 9.91039227,22.5332069 C9.91039227,22.9355057 9.86050691,23.2372299 9.7607362,23.4383793 C9.66096548,23.6395287 9.4828035,23.7796149 9.22625023,23.8586379 C8.96969697,23.9376609 8.5777406,23.9771724 8.05038111,23.9771724 L8.05038111,23.9771724 Z M8.1572783,29.8823448 L5.69864287,29.8823448 L5.69864287,26.8435517 L8.1572783,26.8435517 C8.69889075,26.8435517 9.10153684,26.8830632 9.36521658,26.9620862 C9.62889633,27.0411092 9.80705831,27.1883793 9.89970255,27.4038966 C9.99234678,27.6194138 10.0386689,27.9498736 10.0386689,28.3952759 C10.0386689,28.8263103 9.98878354,29.1424023 9.88901283,29.3435517 C9.78924211,29.5447011 9.61108013,29.6847874 9.35452686,29.7638103 C9.0979736,29.8428333 8.69889075,29.8823448 8.1572783,29.8823448 L8.1572783,29.8823448 Z M26.0304889,32.8995862 L26.0304889,29.709931 L20.1939022,29.709931 L20.1939022,18.072 L16.4738799,18.072 L16.4738799,32.8995862 L26.0304889,32.8995862 Z M33.8553635,33.072 C35.6939952,33.072 37.0195204,32.8780345 37.831939,32.4901034 C38.6443577,32.1021724 39.1681539,31.4520287 39.4033278,30.5396724 C39.6385016,29.6273161 39.7560885,28.1797586 39.7560885,26.197 L39.7560885,26.197 L39.7560885,18.072 L36.0360662,18.072 L36.0360662,26.9944138 C36.0360662,28.0145287 36.0004338,28.7185517 35.929169,29.1064828 C35.8579042,29.4944138 35.6797422,29.7530345 35.394683,29.8823448 C35.1096238,30.0116552 34.5965173,30.0763103 33.8553635,30.0763103 C33.1142096,30.0763103 32.6011031,30.0116552 32.3160439,29.8823448 C32.0309847,29.7530345 31.8528227,29.4944138 31.7815579,29.1064828 C31.7102931,28.7185517 31.6746607,28.0145287 31.6746607,26.9944138 L31.6746607,18.072 L27.9546384,18.072 L27.9546384,26.197 C27.9546384,28.1797586 28.0722253,29.6273161 28.3073991,30.5396724 C28.542573,31.4520287 29.0663692,32.1021724 29.8787879,32.4901034 C30.6912065,32.8780345 32.0167317,33.072 33.8553635,33.072 Z M53.2037553,32.8995862 L53.2037553,29.8607931 L46.4906116,29.8607931 L46.4906116,26.9297586 L52.1775423,26.9297586 L52.1775423,23.8909655 L46.4906116,23.8909655 L46.4906116,21.1107931 L53.2037553,21.1107931 L53.2037553,18.072 L42.7705893,18.072 L42.7705893,32.8995862 L53.2037553,32.8995862 Z M59.6389664,32.8995862 L59.6389664,28.1366552 L62.9100204,28.1366552 C64.2355456,28.1366552 65.236816,27.9283218 65.9138316,27.5116552 C66.5908471,27.0949885 67.0326889,26.5346437 67.2393568,25.8306207 C67.4460247,25.1265977 67.5493586,24.2214253 67.5493586,23.1151034 C67.5493586,21.9369425 67.4388982,20.9958506 67.2179773,20.2918276 C66.9970565,19.5878046 66.5516515,19.0418276 65.8817624,18.6538966 C65.2118733,18.2659655 64.2212927,18.072 62.9100204,18.072 L62.9100204,18.072 L55.918944,18.072 L55.918944,32.8995862 L59.6389664,32.8995862 Z M61.3707009,25.1409655 L59.6389664,25.1409655 L59.6389664,21.0892414 L61.3707009,21.0892414 C62.1403607,21.0892414 62.6855363,21.1359368 63.0062279,21.2293276 C63.3269195,21.3227184 63.5371506,21.5023161 63.6369214,21.7681207 C63.7366921,22.0339253 63.7865774,22.4829195 63.7865774,23.1151034 C63.7865774,23.7472874 63.7366921,24.1962816 63.6369214,24.4620862 C63.5371506,24.7278908 63.3233563,24.9074885 62.9955382,25.0008793 C62.6677201,25.0942701 62.1261077,25.1409655 61.3707009,25.1409655 L61.3707009,25.1409655 Z M73.5356014,32.8995862 L73.5356014,27.7056207 L76.1225135,27.7056207 L78.0466629,32.8995862 L81.9377208,32.8995862 L79.6715003,27.2530345 C80.455413,26.9082069 80.9792093,26.355046 81.242889,25.5935517 C81.5065688,24.8320575 81.6384086,23.934069 81.6384086,22.8995862 C81.6384086,21.7788966 81.5279482,20.8845 81.3070273,20.2163966 C81.0861065,19.5482931 80.6300118,19.0238678 79.9387433,18.6431207 C79.2474747,18.2623736 78.2248249,18.072 76.8707938,18.072 L76.8707938,18.072 L69.8155791,18.072 L69.8155791,32.8995862 L73.5356014,32.8995862 Z M75.4597509,24.7314828 L73.5356014,24.7314828 L73.5356014,21.0892414 L75.5025098,21.0892414 C76.2721695,21.0892414 76.8173452,21.1323448 77.1380368,21.2185517 C77.4587284,21.3047586 77.6618331,21.4663966 77.7473508,21.7034655 C77.8328686,21.9405345 77.8756274,22.3464253 77.8756274,22.9211379 C77.8756274,23.4814828 77.8257421,23.8801897 77.7259714,24.1172586 C77.6262007,24.3543276 77.4159695,24.5159655 77.0952779,24.6021724 C76.7745864,24.6883793 76.2294107,24.7314828 75.4597509,24.7314828 L75.4597509,24.7314828 Z M88.0094813,32.8995862 L88.0094813,18.072 L84.289459,18.072 L84.289459,32.8995862 L88.0094813,32.8995862 Z M94.5943484,32.8995862 L94.5943484,24.4297586 L94.7012456,24.4297586 L99.789552,32.8995862 L103.2744,32.8995862 L103.2744,18.072 L99.7040342,18.072 L99.7040342,25.7659655 L99.597137,25.7659655 L94.8722811,18.072 L91.0453616,18.072 L91.0453616,32.8995862 L94.5943484,32.8995862 Z M112.916527,32.8995862 L112.916527,21.2616552 L117,21.2616552 L117,18.072 L105.134412,18.072 L105.134412,21.2616552 L109.196505,21.2616552 L109.196505,32.8995862 L112.916527,32.8995862 Z" id="BLUEPRINT" fill="#2868D5"></path>
                <path d="M8.00191765,51.9129091 L8.00191765,41.1742727 L11.6760008,41.1742727 L11.6760008,38.2310909 L1,38.2310909 L1,41.1742727 L4.65484712,41.1742727 L4.65484712,51.9129091 L8.00191765,51.9129091 Z M16.2096311,51.9129091 L16.2096311,47.1202955 L18.5371917,47.1202955 L20.268435,51.9129091 L23.7693939,51.9129091 L21.7303739,46.7026818 C22.4356953,46.3845 22.9069782,45.8740833 23.1442226,45.1714318 C23.3814671,44.4687803 23.5000893,43.6401818 23.5000893,42.6856364 C23.5000893,41.6515455 23.4007031,40.8262614 23.2019308,40.2097841 C23.0031584,39.5933068 22.5927896,39.1094053 21.9708244,38.7580795 C21.3488591,38.4067538 20.4287353,38.2310909 19.210453,38.2310909 L19.210453,38.2310909 L12.8625606,38.2310909 L12.8625606,51.9129091 L16.2096311,51.9129091 Z M17.9408745,44.3759773 L16.2096311,44.3759773 L16.2096311,41.0151818 L17.9793466,41.0151818 C18.6718439,41.0151818 19.1623629,41.0549545 19.4509034,41.1345 C19.739444,41.2140455 19.9221864,41.3631932 19.9991305,41.5819432 C20.0760747,41.8006932 20.1145467,42.1752197 20.1145467,42.7055227 C20.1145467,43.2225682 20.0696626,43.5904659 19.9798945,43.8092159 C19.8901263,44.0279659 19.7009719,44.1771136 19.4124314,44.2566591 C19.1238908,44.3362045 18.6333718,44.3759773 17.9408745,44.3759773 L17.9408745,44.3759773 Z M27.5143466,51.9129091 L28.2645521,49.3276818 L32.9773813,49.3276818 L33.7660588,51.9129091 L37.1708375,51.9129091 L32.9389092,38.2310909 L28.3992044,38.2310909 L24.1672761,51.9129091 L27.5143466,51.9129091 Z M32.1887037,46.5237045 L29.0339936,46.5237045 L30.5536406,41.2935909 L30.6498207,41.2935909 L32.1887037,46.5237045 Z M41.5313434,51.9129091 L41.5313434,38.2310909 L38.1842729,38.2310909 L38.1842729,51.9129091 L41.5313434,51.9129091 Z M46.9498315,51.9129091 L46.9498315,44.0975682 L47.0460116,44.0975682 L51.6241886,51.9129091 L54.7596627,51.9129091 L54.7596627,38.2310909 L51.5472444,38.2310909 L51.5472444,45.3305227 L51.4510642,45.3305227 L47.1998999,38.2310909 L43.7566492,38.2310909 L43.7566492,51.9129091 L46.9498315,51.9129091 Z M60.332039,51.9129091 L60.332039,38.2310909 L56.9849685,38.2310909 L56.9849685,51.9129091 L60.332039,51.9129091 Z M65.7505271,51.9129091 L65.7505271,44.0975682 L65.8467072,44.0975682 L70.4248842,51.9129091 L73.5603583,51.9129091 L73.5603583,38.2310909 L70.34794,38.2310909 L70.34794,45.3305227 L70.2517598,45.3305227 L66.0005955,38.2310909 L62.5573448,38.2310909 L62.5573448,51.9129091 L65.7505271,51.9129091 Z M81.4218231,52.072 C82.0758484,52.072 82.8356718,52.0289129 83.7012935,51.9427386 C84.5669152,51.8565644 85.3331507,51.7471894 86,51.6146136 L86,51.6146136 L86,43.9185909 L81.0563384,43.9185909 L81.0563384,46.5435909 L82.8837619,46.5435909 L82.8837619,49.2879091 C82.4605691,49.3276818 82.0181402,49.3475682 81.5564753,49.3475682 C80.7229137,49.3475682 80.1233905,49.2415076 79.7579058,49.0293864 C79.3924211,48.8172652 79.1519707,48.4294811 79.0365544,47.8660341 C78.9211382,47.3025871 78.8634301,46.3712424 78.8634301,45.072 C78.8634301,43.6401818 78.9403742,42.6524924 79.0942625,42.1089318 C79.2481508,41.5653712 79.5591334,41.2239886 80.0272104,41.0847841 C80.4952873,40.9455795 81.364115,40.8759773 82.6336934,40.8759773 C83.4031349,40.8759773 84.5060011,40.9687803 85.9422919,41.1543864 L85.9422919,41.1543864 L85.9422919,38.5293864 C85.7371075,38.4630985 85.1664384,38.3702955 84.2302846,38.2509773 C83.2941307,38.1316591 82.3515649,38.072 81.402587,38.072 C79.7482878,38.072 78.5043574,38.2808068 77.6707958,38.6984205 C76.8372341,39.1160341 76.263359,39.8120568 75.9491704,40.7864886 C75.6349818,41.7609205 75.4778875,43.1894242 75.4778875,45.072 C75.4778875,47.0871515 75.6317758,48.5753144 75.9395524,49.5364886 C76.247329,50.4976629 76.8115861,51.1605417 77.6323237,51.525125 C78.4530613,51.8897083 79.7162278,52.072 81.4218231,52.072 Z" id="TRAINING" fill="#253662"></path>
            </g>
        </g>
    </g>
</svg>